<svg xmlns="http://www.w3.org/2000/svg" width="212.311" height="47.175" viewBox="0 0 212.311 47.175"><path fill="#FFF" d="M39.895 20.248H31.29s-.125.672-.852 3.607c-.714 2.88-2.131 2.88-2.131 2.88H14.2l.912-4.176c.641-2.976 2.275-10.576 2.7-12.788.533-2.77 2.568-2.688 2.568-2.688l5.125-.028L26.837.572h-8.62c-7.584 0-9.483 8.311-9.483 8.311l-7.991 37.6h9.334L12.9 33.318h19.882c4.794 0 5.306-4.538 5.306-4.538l1.807-8.532zm3.208.003l-2.728 13.072h9.163l2.748-13.072z"/><path fill="#B1B2B3" d="M41.279 13.567h-12.04s-1.982-.072-1.545-2.031C28.099 9.72 30.034.544 30.034.544h7.899c4.092 0 5.686 2.009 4.929 5.578-.749 3.538-.837 4.048-1.583 7.445"/><path fill="#E3000F" d="M44.456 13.567s.715-3.363 1.172-5.425C46.726 3.193 48.175.543 54.919.543h6.402L59.17 10.661s-.33 2.906-2.94 2.906H44.456z"/><path fill="#B1B2B3" d="M200.118 33.116c0 .114.076.192.191.192h1.672c.115 0 .193-.078.193-.192v-8.993h.076l5.342 8.993c.078.134.174.192.328.192h1.748c.115 0 .193-.078.193-.192V20.433a.183.183 0 00-.193-.193h-1.672c-.115 0-.191.078-.191.193v9.013h-.078l-5.322-9.013a.339.339 0 00-.328-.193h-1.768c-.115 0-.191.078-.191.193v12.683zm-7.474-1.634c-1.289 0-2.057-.652-2.422-1.709-.154-.481-.232-1.153-.232-2.998 0-1.865.078-2.517.232-2.999.365-1.057 1.133-1.709 2.422-1.709 1.305 0 2.074.652 2.439 1.709.154.482.23 1.134.23 2.999 0 1.845-.076 2.517-.23 2.998-.365 1.057-1.135 1.709-2.439 1.709m0 2.038c2.268 0 3.957-1.076 4.629-3.152.271-.807.348-1.537.348-3.593s-.076-2.788-.348-3.594c-.672-2.075-2.361-3.151-4.629-3.151-2.25 0-3.94 1.076-4.614 3.151-.269.807-.346 1.538-.346 3.594s.077 2.787.346 3.593c.674 2.076 2.363 3.152 4.614 3.152m-9.726-.404c0 .114.077.192.192.192h1.884a.183.183 0 00.192-.192V20.433c0-.115-.078-.193-.192-.193h-1.884c-.115 0-.192.078-.192.193v12.683zm-5.784.192a.182.182 0 00.192-.192V22.393c0-.077.038-.115.114-.115h3.422c.115 0 .191-.078.191-.192v-1.653c0-.115-.076-.193-.191-.193h-9.34c-.115 0-.191.078-.191.193v1.653c0 .114.076.192.191.192h3.42c.078 0 .116.039.116.115v10.724c0 .114.076.192.192.192h1.884zm-12.78-4.746l1.748-5.073h.059l1.729 5.073h-3.536zm-3.804 4.554c-.039.114 0 .192.135.192h1.863c.135 0 .212-.058.25-.192l.865-2.537h4.919l.866 2.537c.037.134.115.192.248.192h1.885c.134 0 .173-.078.134-.192l-4.419-12.684c-.039-.115-.117-.193-.251-.193h-1.769c-.134 0-.211.078-.25.193l-4.476 12.684zm-13.434 0c0 .114.078.192.192.192h1.673c.115 0 .191-.078.191-.192v-7.995h.076l2.769 6.149c.076.173.191.25.365.25h1.113c.173 0 .289-.078.366-.25l2.768-6.149h.076v7.995c0 .114.077.192.191.192h1.673a.183.183 0 00.192-.192V20.433c0-.115-.078-.193-.192-.193h-1.691c-.173 0-.269.058-.327.193l-3.535 8.052h-.078l-3.592-8.052c-.059-.135-.155-.193-.328-.193h-1.71c-.114 0-.192.078-.192.193v12.683zm-7.475-1.634c-1.288 0-2.056-.652-2.421-1.709-.154-.481-.231-1.153-.231-2.998 0-1.865.077-2.517.231-2.999.365-1.057 1.133-1.709 2.421-1.709 1.308 0 2.076.652 2.44 1.709.154.482.23 1.134.23 2.999 0 1.845-.076 2.517-.23 2.998-.364 1.057-1.133 1.709-2.44 1.709m0 2.038c2.268 0 3.959-1.076 4.632-3.152.27-.807.346-1.537.346-3.593s-.076-2.788-.346-3.594c-.673-2.075-2.364-3.151-4.632-3.151-2.248 0-3.939 1.076-4.612 3.151-.269.807-.346 1.538-.346 3.594s.077 2.787.346 3.593c.672 2.076 2.364 3.152 4.612 3.152m-10.012-.212c.115 0 .191-.078.191-.192V22.393c0-.077.038-.115.116-.115h3.42c.115 0 .191-.078.191-.192v-1.653c0-.115-.076-.193-.191-.193h-9.34c-.115 0-.191.078-.191.193v1.653c0 .114.076.192.191.192h3.422c.076 0 .114.039.114.115v10.724c0 .114.077.192.192.192h1.885zm-12.416-1.826c-1.479 0-2.536-.998-2.536-2.805v-8.244c0-.115-.077-.193-.192-.193h-1.884c-.115 0-.191.078-.191.193v8.283c0 3.037 2.056 4.804 4.803 4.804 2.768 0 4.825-1.767 4.825-4.804v-8.283c0-.115-.077-.193-.193-.193h-1.883c-.114 0-.192.078-.192.193v8.244c0 1.807-1.057 2.805-2.557 2.805m-13.508-2.92l1.748-5.073h.057l1.73 5.073h-3.535zm-3.806 4.554c-.039.114 0 .192.134.192h1.865c.134 0 .211-.058.249-.192l.866-2.537h4.919l.865 2.537c.039.134.115.192.25.192h1.883c.134 0 .173-.078.134-.192l-4.419-12.684c-.039-.115-.115-.193-.25-.193h-1.768c-.134 0-.211.078-.249.193l-4.479 12.684z"/><path fill="#FFF" d="M80.126 20.233l-.628 3.006-.004-.004c-.121.562-.308 1.442-.413 1.924-.213.982-.416 1.571-2.315 1.571H65.479s-1.409 0-1.059-1.657c.36-1.703.374-1.757.61-2.88.268-1.259.292-1.96 2.379-1.96h12.717zM86.271.53H64.515l-1.376 6.514h16.742c3.03 0 2.305 3.467 2.305 3.467l-.64 3.061h-18.51c-3.042 0-4.045 2.151-4.396 4.093-.363 2-.597 2.918-1.792 8.774-1.385 6.789 4.768 6.881 4.768 6.881h19.938c3.442 0 5.001-2.535 5.343-4.118 1.243-5.941 3.502-16.73 4.521-21.541C92.86.857 86.271.53 86.271.53"/></svg>